<?xml version="1.0" encoding="iso-8859-1"?>
<!-- Uploaded to: SVG Repo, www.svgrepo.com, Generator: SVG Repo Mixer Tools -->
<svg height="800px" width="800px" version="1.1" id="Layer_1" xmlns="http://www.w3.org/2000/svg" xmlns:xlink="http://www.w3.org/1999/xlink" 
	 viewBox="0 0 512 512" xml:space="preserve">
<g>
	<polygon style="fill:#FFFFFF;" points="349.091,120.145 443.602,147.142 374.528,221.917 374.516,221.94 356.329,241.652 
		349.091,249.484 	"/>
	<polygon style="fill:#FFFFFF;" points="162.909,484.934 23.273,445.044 23.273,323.247 115.793,379.555 162.909,408.227 	"/>
	<polygon style="fill:#FFFFFF;" points="162.909,380.975 70.388,324.666 23.273,296.006 23.273,120.157 162.909,160.047 	"/>
	<polygon style="fill:#FFFFFF;" points="186.182,484.945 186.182,425.379 191.069,429.149 221.079,452.317 221.079,452.317 
		221.091,452.34 242.327,468.666 242.583,468.864 	"/>
	<polygon style="fill:#FFFFFF;" points="325.818,445.044 270.429,460.905 243.933,440.483 325.818,317.696 	"/>
	<path style="fill:#FFFFFF;" d="M325.818,275.747L225.455,426.24l-39.273-30.278v-81.78V185.123v-0.233
		c21.981,55.331,51.677,107.462,52.154,108.183c3.956,5.923,10.554,9.472,17.664,9.472c7.11,0,13.708-3.549,17.664-9.472
		c0.477-0.71,30.173-52.817,52.154-108.241v59.532V275.747z"/>
	<polygon style="fill:#FFFFFF;" points="488.727,301.265 400.023,228.655 468.41,154.601 468.678,154.31 488.727,160.047 	"/>
</g>
<g>
	<polygon style="fill:#72C6EF;" points="174.545,401.687 174.545,500.364 11.636,453.818 11.636,302.545 	"/>
	<polygon style="fill:#72C6EF;" points="267.985,473.716 174.545,500.364 174.545,401.687 228.189,443.113 	"/>
	<polygon style="fill:#72C6EF;" points="500.364,325.818 500.364,500.364 337.455,453.818 337.455,279.273 383.069,229.818 	"/>
</g>
<path style="fill:#FAA85F;" d="M256,11.636c-44.916,0-81.455,36.724-81.455,81.85c0,62.394,70.481,188.614,73.484,193.129
	c1.78,2.688,4.771,4.294,7.971,4.294c3.2,0,6.191-1.606,7.971-4.282c3.002-4.527,73.484-131.142,73.484-193.536
	C337.455,47.965,300.916,11.636,256,11.636z M256,128c-19.281,0-34.909-15.628-34.909-34.909S236.719,58.182,256,58.182
	s34.909,15.628,34.909,34.909S275.281,128,256,128z"/>
<g>
	<path style="fill:#00384E;" d="M302.545,93.091c0-25.67-20.876-46.545-46.545-46.545c-25.67,0-46.545,20.876-46.545,46.545
		S230.33,139.636,256,139.636C281.67,139.636,302.545,118.761,302.545,93.091z M256,116.364c-12.835,0-23.273-10.438-23.273-23.273
		S243.165,69.818,256,69.818c12.835,0,23.273,10.438,23.273,23.273S268.835,116.364,256,116.364z"/>
	<path style="fill:#00384E;" d="M503.564,140.09l-35.328-10.112c-0.023,0-0.035-0.023-0.058-0.023l-119.18-34.036
		c0.023-0.943,0.093-1.908,0.093-2.828C349.091,41.763,307.328,0,256,0s-93.091,41.937-93.091,93.487
		c0,12.905,2.769,28.172,7.215,44.416L14.836,93.533c-3.514-0.989-7.296-0.291-10.205,1.897C1.711,97.641,0,101.085,0,104.727
		v197.818v151.273c0,5.19,3.444,9.763,8.436,11.194l162.909,46.545c1.047,0.291,2.129,0.442,3.2,0.442
		c1.071,0,2.141-0.151,3.188-0.442l93.44-26.647c0.023,0,0.035-0.012,0.047-0.023l66.211-18.967l159.721,45.638
		c1.059,0.291,2.141,0.442,3.212,0.442c2.502,0,4.969-0.803,7.005-2.339c2.921-2.211,4.631-5.655,4.631-9.297V325.818V151.273
		C512,146.083,508.556,141.51,503.564,140.09z M349.091,120.145l94.511,26.996l-69.085,74.775c0,0,0,0.012-0.012,0.012
		l-18.188,19.724l-7.226,7.831V120.145z M256,23.273c38.505,0,69.818,31.313,69.818,69.818c0,53.097-57.484,162.665-69.818,184.18
		c-12.509-21.818-69.818-130.979-69.818-183.785C186.182,54.772,217.495,23.273,256,23.273z M162.909,484.934L23.273,445.044
		V323.247l92.521,56.308l47.116,28.672V484.934z M162.909,380.975l-92.521-56.308l-47.116-28.66V120.157l139.636,39.889V380.975z
		 M186.182,484.945v-59.567l4.887,3.77l29.999,23.168l0,0c0.023,0.012,0.023,0.023,0.023,0.023l21.225,16.326l0.256,0.198
		L186.182,484.945z M325.818,445.044l-55.389,15.86l-26.496-20.422l81.885-122.787V445.044z M325.818,275.747L225.455,426.24
		l-39.273-30.278v-81.78V185.123v-0.233c21.981,55.331,51.677,107.462,52.154,108.183c3.956,5.923,10.554,9.472,17.664,9.472
		c7.11,0,13.708-3.549,17.664-9.472c0.477-0.71,30.173-52.817,52.154-108.241v59.532V275.747z M488.727,484.934l-139.636-39.889
		V283.823l0.396-0.431l34.723-37.609l104.518,85.551V484.934z M488.727,301.265l-88.704-72.611l68.375-74.054l0.268-0.291
		l20.061,5.737V301.265z"/>
</g>
</svg>